<?xml version="1.0" encoding="utf-8"?>
<!-- Generator: Adobe Illustrator 28.2.0, SVG Export Plug-In . SVG Version: 6.00 Build 0)  -->
<svg version="1.1" id="Calque_1" xmlns="http://www.w3.org/2000/svg" xmlns:xlink="http://www.w3.org/1999/xlink" x="0px" y="0px"
	 viewBox="0 0 1000 736.3" style="enable-background:new 0 0 1000 736.3;" xml:space="preserve">
<style type="text/css">
	.st0{fill:url(#SVGID_1_);}
	.st1{fill:url(#SVGID_00000073691169881865550500000009157717215921990289_);}
	.st2{fill:#E1E3EB;}
	.st3{fill:#FBFBFD;}
	.st4{fill:#FFFFFF;}
</style>
<g>
	
		<linearGradient id="SVGID_1_" gradientUnits="userSpaceOnUse" x1="17.0133" y1="178.5053" x2="865.5722" y2="391.777" gradientTransform="matrix(1 0 0 -1 0 721.635)">
		<stop  offset="0" style="stop-color:#581B4C"/>
		<stop  offset="0.1936" style="stop-color:#5C1D4F"/>
		<stop  offset="0.379" style="stop-color:#67215A"/>
		<stop  offset="0.5611" style="stop-color:#7B296B"/>
		<stop  offset="0.7411" style="stop-color:#963483"/>
		<stop  offset="0.9181" style="stop-color:#B842A2"/>
		<stop  offset="1" style="stop-color:#CB4AB3"/>
	</linearGradient>
	<path class="st0" d="M674.2,356.4c-4.3,6.8-8,14.3-11,22.3c-3.5,8.6-5.5,15.4-6,20.3c-0.6,4.9-0.9,11.1-0.9,18.6
		c3.5,36.8,16.1,62.1,38,75.9c8-16.1,21.3-24.2,39.7-24.2c8.6,0,18.5,2,29.8,6c11.2,4,20.7,10.5,28.5,19.4
		c7.8,8.9,13.1,18.9,16,29.8c2.9,10.9,4.3,18.7,4.3,23.3c0,23.6-8.8,43.9-26.3,60.8c-17.6,17-39.6,25.5-66,25.5
		c-17.8,0-33.5-3.3-47-9.9c-13.5-6.6-26.3-17.7-38.4-33.2c-6.3-8.6-10.8-17.1-13.4-25.5c-2.6-8.3-5.5-22.9-8.6-43.6
		c-3.2-20.7-5.1-35.1-5.6-43.2c-0.6-8-0.9-19.5-0.9-34.5l-0.9-50.9l0.9-40.6v-25.7C535.6,298.9,462.6,276,393,257.6
		c0.5,7.9,0.8,18.8,0.8,32.9h-54.9c-6.1-22.4-17.2-38.6-33.2-48.7c-8,16.1-21.3,24.2-39.7,24.2c-8.6,0-18.6-2-29.8-6
		c-11.2-4-20.7-10.5-28.5-19.4c-7.1-8.1-12.1-17.1-15.1-26.9c-51.4-9.2-95.3-15.5-127.3-19.5c-3.7,15.8-5.6,33.2-5.6,52
		c0,15.5,1,30.5,3,44.9c2,14.4,5.9,28.7,11.6,43.2c21.9,57.5,59.9,90,113.9,97.5c2.9,0,7.8,0.6,14.7,1.7h13c30.5,0,56-6.8,76.4-20.3
		c20.4-13.5,35.2-32.4,44.4-56.5c3.5-8.6,5.5-15.4,6-20.3c0.3-2.7,0.5-5.8,0.7-9.2h50.9l0.2,14.8l-0.9,40.6v62.2L392,468
		c0,54.1-5.2,94.4-15.5,120.9c-7,18.4-18.6,34.6-35,48.7c-2.3,2-4.8,4-7.4,5.9l24.6,39.4l4.1,6.6c18.4-7.5,36-12.7,52.6-15.5
		c15.5-4,27.3-6.2,35.4-6.5c8.1-0.3,15.8-0.4,23.3-0.4c23.6,0,52.1,3.2,85.5,9.5l62.1,10.3l9.5,1.7c32.2,4.6,59.3,6.9,81.1,6.9
		c63.9,0,114.5-16.4,151.9-49.2c26.5-22.5,45.8-45.8,57.8-69.9c5.4-10.8,9.6-22.5,12.5-35.2C870.1,464.7,776.9,404.2,674.2,356.4z"
		/>
	
		<linearGradient id="SVGID_00000150095392522676306770000007232936828860145820_" gradientUnits="userSpaceOnUse" x1="154.0318" y1="320.5781" x2="707.7898" y2="460.4929" gradientTransform="matrix(1 0 0 -1 0 721.635)">
		<stop  offset="0" style="stop-color:#BC26A0"/>
		<stop  offset="0.2839" style="stop-color:#BD28A2"/>
		<stop  offset="0.4466" style="stop-color:#C131A7"/>
		<stop  offset="0.5788" style="stop-color:#C73FB0"/>
		<stop  offset="0.6946" style="stop-color:#D052BD"/>
		<stop  offset="0.7996" style="stop-color:#DC6CCD"/>
		<stop  offset="0.8968" style="stop-color:#EA8CE1"/>
		<stop  offset="0.9863" style="stop-color:#FBB1F9"/>
		<stop  offset="1" style="stop-color:#FEB7FD"/>
	</linearGradient>
	<path style="fill:url(#SVGID_00000150095392522676306770000007232936828860145820_);" d="M940.3,489.2c0,18.8-1.9,36.2-5.6,52
		c-64.5-76.4-157.8-137-260.5-184.8c8.6-13.8,19.8-25.2,33.4-34.3c1.5-1,3.1-2,4.7-2.9H606.2v7.9C535.6,298.9,462.6,276,393,257.6
		c0-0.4,0-0.8-0.1-1.1c-0.5-8.1-2.4-22.4-5.6-43.1c-3.1-20.7-6-35.3-8.6-43.6c-2.6-8.4-7-16.8-13.4-25.5
		c-12.1-15.5-24.9-26.6-38.4-33.2c-13.5-6.6-29.2-9.9-47-9.9c-26.4,0-48.5,8.5-66,25.5c-17.5,17-26.3,37.2-26.3,60.9
		c0,4.6,1.4,12.4,4.3,23.3c0.3,1,0.5,1.9,0.8,2.9c-51.4-9.2-95.3-15.5-127.3-19.5c3-12.7,7.2-24.4,12.5-35.1
		c12.1-24.2,31.4-47.4,57.8-69.9c37.4-32.8,88-49.2,151.9-49.2c21.9,0,48.9,2.3,81.1,6.9l9.5,1.7l62.1,10.3
		c33.4,6.3,61.9,9.5,85.5,9.5c7.5,0,15.2-0.1,23.3-0.4c8.1-0.3,19.8-2.5,35.4-6.5c16.7-2.9,34.2-8,52.6-15.5l4.1,6.6l24.6,39.4
		c-2.5,1.9-5,3.9-7.3,5.9c-16.4,14.1-28.1,30.4-35.1,48.8c-10,25.5-15.1,63.7-15.5,114.6h184v40.7h5c6.9,1.1,11.8,1.7,14.7,1.7
		c54.1,7.5,92.1,40,113.9,97.5c5.7,14.4,9.6,28.8,11.7,43.2C939.2,458.7,940.3,473.6,940.3,489.2z"/>
	<g>
		<g>
			<g>
				<g>
					<g>
						<path class="st2" d="M293.8,233.7c-4.6,20.5-12.5,38.1-23.9,52.9c-11.9,15.5-26.7,27.5-44.5,36c-17.8,8.5-37.9,13.3-60.4,14.4
							v92.8h94.7v265.7h135.9V258.3C360.6,249,326.5,240.9,293.8,233.7z"/>
					</g>
					<g>
						<path class="st2" d="M670.3,354.6c-12.5,13.6-25.5,29.3-39,47.3c-17.2,22.8-33.4,49.1-48.6,78.8
							c-15.2,29.7-27.8,62.4-37.9,98.2c-10.1,35.8-16,74.7-17.7,116.6h139c0.6-37.6,5.2-74,13.7-109.2c8.5-35.2,19.8-68.5,34-99.8
							c13.9-30.8,29.6-59.1,47.3-84.9C732,384.6,701.6,369,670.3,354.6z M636.1,345.1c4.2-0.1,8.3-0.2,12.5-0.3
							c-60.9-26.7-124.5-49.1-186.9-67.9v68.3h150.8C620.5,345.3,628.4,345.2,636.1,345.1z"/>
					</g>
				</g>
			</g>
			<g>
				<g>
					<g>
						<path class="st3" d="M819.1,230.5v100.5c-20,19.8-39,42.8-57.1,69c-0.3,0.5-0.7,1-1,1.5c-29-16.9-59.4-32.4-90.7-46.9
							c3.4-3.7,6.8-7.2,10.1-10.6v-1.3c-7,0.6-14.2,1.2-21.7,1.6c-3.4,0.2-6.8,0.4-10.2,0.5h0c-60.9-26.7-124.5-49.1-186.9-67.9
							v-46.5L819.1,230.5L819.1,230.5z"/>
					</g>
					<g>
						<path class="st3" d="M395.6,230.5v27.8c-35-9.3-69.1-17.4-101.8-24.6c0.2-1.1,0.5-2.2,0.7-3.2H395.6z"/>
					</g>
				</g>
			</g>
		</g>
	</g>
	<g>
		<g>
			<path class="st4" d="M819.1,230.5v100.5c-20,19.8-39,42.8-57.1,69c-0.3,0.5-0.7,1-1,1.5c-17.7,25.9-33.4,54.2-47.3,84.9
				c-14.1,31.4-25.5,64.6-34,99.8c-8.5,35.2-13.1,71.6-13.7,109.2H527c1.7-41.9,7.6-80.7,17.7-116.6c10.1-35.8,22.8-68.6,37.9-98.2
				c15.2-29.7,31.4-55.9,48.6-78.8c13.5-18,26.5-33.7,39-47.3c3.4-3.7,6.8-7.2,10.1-10.6v-1.3c-7,0.6-14.2,1.2-21.7,1.6
				c-3.4,0.2-6.8,0.4-10.2,0.5h0c-4.1,0.1-8.3,0.2-12.5,0.3c-7.7,0.1-15.5,0.1-23.6,0.1H461.6V277v-46.5L819.1,230.5 M820.1,229.5
				h-1H461.6h-1v1V277v68.3v1h1h150.8c8.5,0,16.2,0,23.6-0.1c4.5-0.1,8.5-0.2,12.5-0.3c3.4-0.1,6.8-0.3,10.2-0.5
				c6.8-0.4,13.7-0.9,20.4-1.5c-3.3,3.3-6.5,6.7-9.6,10.1c-12.5,13.5-25.6,29.5-39.1,47.4c-17.2,22.8-33.6,49.4-48.7,78.9
				c-15.2,29.6-27.9,62.7-38,98.4c-10.1,35.7-16,75-17.7,116.8l0,1h1h139h1l0-1c0.6-37.4,5.2-74.1,13.7-109
				c8.5-35,19.8-68.5,33.9-99.6c13.8-30.6,29.7-59.1,47.2-84.8c0.3-0.5,0.7-1,1-1.5c18-26.1,37.1-49.3,57-68.9l0.3-0.3v-0.4V230.5
				L820.1,229.5L820.1,229.5z"/>
		</g>
		<g>
			<path class="st4" d="M395.6,230.5v27.8v437.1H259.8V429.8h-94.7V337c22.5-1.1,42.7-5.8,60.4-14.4c17.8-8.5,32.6-20.5,44.5-36
				c11.3-14.7,19.3-32.4,23.9-52.9c0.2-1.1,0.5-2.2,0.7-3.2L395.6,230.5 M396.6,229.5h-1H294.5h-0.8l-0.2,0.8
				c-0.2,1.2-0.5,2.2-0.7,3.2c-4.5,20.3-12.5,37.9-23.7,52.5c-11.8,15.3-26.6,27.3-44.1,35.7S187.3,335,165,336l-0.9,0v1v92.8v1h1
				h93.7v264.6v1h1h135.9h1v-1V258.3v-27.8L396.6,229.5L396.6,229.5z"/>
		</g>
	</g>
</g>
</svg>
