<?xml version="1.0" encoding="utf-8"?>
<!-- Generator: Adobe Illustrator 28.2.0, SVG Export Plug-In . SVG Version: 6.00 Build 0)  -->
<svg version="1.1" id="Calque_1" xmlns="http://www.w3.org/2000/svg" xmlns:xlink="http://www.w3.org/1999/xlink" x="0px" y="0px"
	 viewBox="0 0 1000 387.9" style="enable-background:new 0 0 1000 387.9;" xml:space="preserve">
<style type="text/css">
	.st0{fill:url(#SVGID_1_);}
	.st1{fill:url(#SVGID_00000012440731347394310160000009900100901234962613_);}
	.st2{fill:url(#SVGID_00000174598105988680721300000012851411425444238746_);}
	.st3{fill:#F2F2F2;}
</style>
<g>
	
		<linearGradient id="SVGID_1_" gradientUnits="userSpaceOnUse" x1="312.565" y1="606.9197" x2="312.565" y2="206.7605" gradientTransform="matrix(1 0 0 -1 0 557.6642)">
		<stop  offset="0" style="stop-color:#686868"/>
		<stop  offset="0.1659" style="stop-color:#5F5F5F"/>
		<stop  offset="0.4414" style="stop-color:#454545"/>
		<stop  offset="0.7532" style="stop-color:#212121"/>
	</linearGradient>
	<rect x="20.5" y="42.3" class="st0" width="584.1" height="252"/>
	
		<linearGradient id="SVGID_00000036964147609937921680000006786231796772390294_" gradientUnits="userSpaceOnUse" x1="460.8016" y1="518.0527" x2="614.1043" y2="329.5384" gradientTransform="matrix(1 0 0 -1 0 557.6642)">
		<stop  offset="7.950000e-02" style="stop-color:#97007E"/>
		<stop  offset="0.348" style="stop-color:#FF3BEB"/>
	</linearGradient>
	<polygon style="fill:url(#SVGID_00000036964147609937921680000006786231796772390294_);" points="604.6,42.3 363,93.5 610.6,93.5 	
		"/>
	
		<linearGradient id="SVGID_00000029003806677440820050000002947356974141075345_" gradientUnits="userSpaceOnUse" x1="673.5341" y1="140.5655" x2="669.1846" y2="517.6049" gradientTransform="matrix(1 0 0 -1 0 557.6642)">
		<stop  offset="0.1619" style="stop-color:#97007E"/>
		<stop  offset="1" style="stop-color:#FF3BEB"/>
	</linearGradient>
	
		<rect x="363" y="93.5" style="fill:url(#SVGID_00000029003806677440820050000002947356974141075345_);" width="616.4" height="252"/>
	<g>
		<path class="st3" d="M59.3,82.6h70v24.5h-23.7V254H83V107.1H59.3V82.6z"/>
		<path class="st3" d="M147.6,123.8c0-27.4,12.1-43.1,34.4-43.1s34.4,15.7,34.4,43.1v89.1c0,27.4-12.1,43.1-34.4,43.1
			s-34.4-15.7-34.4-43.1V123.8z M170.2,214.6c0,12.2,4.5,16.9,11.7,16.9s11.7-4.6,11.7-16.9V122c0-12.2-4.5-16.9-11.7-16.9
			s-11.7,4.6-11.7,16.9V214.6z"/>
		<path class="st3" d="M308.3,125v22.3c0,27.4-11.1,42.4-33.8,42.4h-10.7V254h-22.6V82.6h33.3C297.2,82.6,308.3,97.6,308.3,125z
			 M263.9,107.1v58h10.7c7.2,0,11.1-3.9,11.1-16.2v-25.7c0-12.2-3.9-16.2-11.1-16.2L263.9,107.1L263.9,107.1z"/>
	</g>
	<g>
		<g>
			<path class="st3" d="M419.9,305.2V133.8h9.5V295h45.3v10.3L419.9,305.2L419.9,305.2z"/>
			<path class="st3" d="M547.9,213.2v10.3h-39.3V295h47.3v10.3h-56.8V133.8h56.8v10.3h-47.3v69.1H547.9z"/>
			<path class="st3" d="M590.3,305.2h-8.6V133.8H594l43.2,144.7V133.8h8.6v171.4h-10.5l-45.1-152.8V305.2z"/>
			<path class="st3" d="M680,133.8l29.2,158.4l29.2-158.4h8.8L716,305.2h-14l-31.7-171.4L680,133.8L680,133.8z"/>
			<path class="st3" d="M802,133.8c22,0,30.9,14.5,30.9,38.7v14.9c0,20.1-6.6,31.6-20.8,35.5c14.8,3.9,20.8,16.4,20.8,35v26.7
				c0,7.1,0.4,14.9,3.5,20.6h-9.9c-2.5-5.1-3.1-11.3-3.1-20.6v-26.9c0-22.8-10.5-29.1-27-29.1h-15v76.7H772V133.8H802z M796.7,218.3
				c16.9,0,26.8-5.6,26.8-28.6v-16.2c0-18.4-6-29.4-21.6-29.4h-20.4v74.2L796.7,218.3L796.7,218.3z"/>
			<path class="st3" d="M922.4,175.2v3.7h-9v-4.4c0-18.1-5.8-31.8-21.4-31.8s-21.4,13.5-21.4,31.6c0,41.6,52.1,42.4,52.1,89.6
				c0,24.7-9,42.8-31.1,42.8s-31.1-18.1-31.1-42.9V255h9v9.6c0,18.4,6,31.6,21.8,31.6c15.8,0,21.8-13.2,21.8-31.6
				c0-41.1-52.1-41.9-52.1-89.6c0-25.7,9.5-42.4,30.7-42.6C913.6,132.4,922.4,150.5,922.4,175.2z"/>
		</g>
	</g>
</g>
</svg>
