<?xml version="1.0" encoding="utf-8"?>
<!-- Generator: Adobe Illustrator 28.2.0, SVG Export Plug-In . SVG Version: 6.00 Build 0)  -->
<svg version="1.1" id="Calque_1" xmlns="http://www.w3.org/2000/svg" xmlns:xlink="http://www.w3.org/1999/xlink" x="0px" y="0px"
	 viewBox="0 0 879.6 687.1" style="enable-background:new 0 0 879.6 687.1;" xml:space="preserve">
<style type="text/css">
	.st0{fill:#1A1A1A;}
	.st1{fill:#F6F6F6;}
</style>
<polygon class="st0" points="773.8,290.1 682.2,237.2 682.2,10.9 18.1,10.9 18.1,675 682.2,675 682.2,448.8 773.8,395.9 865.4,343 
	"/>
<g>
	<path class="st1" d="M439.7,122.8H219c-20.3,0-36.8,16.5-36.8,36.8v367.9c0,20.3,16.5,36.8,36.8,36.8h220.7
		c20.3,0,36.8-16.5,36.8-36.8V159.6C476.5,139.3,460.1,122.8,439.7,122.8z M274.2,141.2h92l1.1,18.4h-93.1V141.2z M329,536.7
		c-10.2,0-18.4-8.2-18.4-18.4c0-10.2,8.2-18.4,18.4-18.4c10.2,0,18.4,8.2,18.4,18.4C347.4,528.5,339.2,536.7,329,536.7z
		 M439.7,472.3H219l0.4-294.3h220.3V472.3z"/>
	<g>
		<polygon class="st1" points="231.9,459.4 232.3,190.9 426.9,190.9 426.9,459.4 		"/>
		<path class="st0" d="M414,203.8v242.8H244.8l0.3-242.8H414 M439.8,178H219.4L219,472.3h220.7V178L439.8,178z"/>
	</g>
</g>
</svg>
